<svg xmlns="http://www.w3.org/2000/svg" viewBox="0 0 512 512"><path d="M496.4 243.1C432.5 164.4 347.1 121 256 121S79.5 164.4 15.6 243.1c-6.1 7.5-6.1 18.2 0 25.7C79.5 347.6 164.9 391 256 391s176.5-43.4 240.4-122.1c6.1-7.5 6.1-18.3 0-25.8zM256 322.9c-36.9 0-66.9-30-66.9-66.9 0-36.9 30-66.9 66.9-66.9 36.9 0 66.9 30 66.9 66.9 0 36.9-30 66.9-66.9 66.9zM58.2 256c37.8-42.2 82.9-71.1 131.5-84.9-25.2 19.7-41.5 50.4-41.5 84.9 0 34.4 16.2 65.1 41.5 84.9-48.6-13.8-93.6-42.7-131.5-84.9zm264.1 84.9c25.2-19.7 41.5-50.4 41.5-84.9 0-34.4-16.2-65.1-41.5-84.9 48.6 13.8 93.7 42.7 131.5 84.9-37.9 42.2-82.9 71.1-131.5 84.9z"/></svg>