<svg xmlns="http://www.w3.org/2000/svg" viewBox="0 0 512 512"><path d="M256 369.8v28.4c15.7 0 28.4 12.8 28.4 28.4 0 15.7-12.8 28.4-28.4 28.4-15.7 0-28.4-12.8-28.4-28.4 0-15.7 12.8-28.4 28.4-28.4v-56.8c-47.1 0-85.3 38.2-85.3 85.3 0 47.1 38.2 85.3 85.3 85.3 47.1 0 85.3-38.2 85.3-85.3 0-47.1-38.2-85.3-85.3-85.3v28.4zM113.8 28.4v28.4c15.7 0 28.4 12.8 28.4 28.4 0 15.7-12.8 28.4-28.4 28.4-15.7 0-28.4-12.8-28.4-28.4 0-15.7 12.8-28.4 28.4-28.4V0C66.6 0 28.5 38.2 28.4 85.3c0 47.1 38.2 85.3 85.3 85.3 47.1 0 85.3-38.2 85.3-85.3C199 38.2 160.8 0 113.7 0v28.4zm284.4 0v28.4c15.7 0 28.4 12.8 28.4 28.4 0 15.7-12.8 28.4-28.4 28.4-15.7 0-28.4-12.8-28.4-28.4 0-15.7 12.8-28.4 28.4-28.4V0c-47.1 0-85.3 38.2-85.3 85.3 0 47.1 38.2 85.3 85.3 85.3 47.1 0 85.3-38.2 85.3-85.3 0-47.1-38.2-85.3-85.3-85.3v28.4z"/><path d="M85.3 142.2v56.9c0 47.1 38.2 85.3 85.3 85.3h170.7c47.1 0 85.3-38.2 85.3-85.3v-56.9c0-15.7-12.7-28.4-28.4-28.4s-28.4 12.7-28.4 28.4v56.9c0 15.7-12.8 28.4-28.4 28.4H170.7c-15.7 0-28.4-12.8-28.4-28.4v-56.9c0-15.7-12.7-28.4-28.4-28.4s-28.6 12.7-28.6 28.4z"/><path d="M227.6 256v113.8c0 15.7 12.7 28.4 28.4 28.4s28.4-12.7 28.4-28.4V256c0-15.7-12.7-28.4-28.4-28.4s-28.4 12.7-28.4 28.4"/></svg>