<svg width="164" height="42" fill="none" xmlns="http://www.w3.org/2000/svg"><g clip-path="url(#clip0_4_240)"><path d="M65.172 15.216v5.136h6.504v2.58h-6.504V30h-3.24V12.648h10.944v2.568h-7.704zm26.738 6.108c0 1.272-.212 2.452-.636 3.54a8.234 8.234 0 01-1.776 2.808 8.168 8.168 0 01-2.772 1.86c-1.08.44-2.28.66-3.6.66-1.312 0-2.508-.22-3.588-.66a8.298 8.298 0 01-2.784-1.86 8.386 8.386 0 01-1.788-2.808c-.424-1.088-.636-2.268-.636-3.54 0-1.272.212-2.448.636-3.528a8.36 8.36 0 011.788-2.82 8.152 8.152 0 012.784-1.848c1.08-.448 2.276-.672 3.588-.672.88 0 1.708.104 2.484.312.776.2 1.488.488 2.136.864.648.368 1.228.82 1.74 1.356.52.528.96 1.12 1.32 1.776.36.656.632 1.368.816 2.136a9.96 9.96 0 01.288 2.424zm-3.3 0c0-.952-.128-1.804-.384-2.556-.256-.76-.62-1.404-1.092-1.932a4.665 4.665 0 00-1.728-1.212c-.672-.28-1.432-.42-2.28-.42-.848 0-1.612.14-2.292.42a4.799 4.799 0 00-1.728 1.212c-.472.528-.836 1.172-1.092 1.932-.256.752-.384 1.604-.384 2.556s.128 1.808.384 2.568c.256.752.62 1.392 1.092 1.92.48.52 1.056.92 1.728 1.2.68.28 1.444.42 2.292.42.848 0 1.608-.14 2.28-.42a4.73 4.73 0 001.728-1.2c.472-.528.836-1.168 1.092-1.92.256-.76.384-1.616.384-2.568zm11.379-.42c.608 0 1.136-.076 1.584-.228.456-.152.828-.36 1.116-.624.296-.272.516-.592.66-.96.144-.368.216-.772.216-1.212 0-.88-.292-1.556-.876-2.028-.576-.472-1.46-.708-2.652-.708h-2.065v5.76h2.017zM108.293 30h-2.916c-.552 0-.952-.216-1.2-.648l-3.648-5.556a1.26 1.26 0 00-.456-.444c-.16-.088-.4-.132-.72-.132h-1.38V30h-3.228V12.648h5.292c1.176 0 2.184.124 3.024.372.848.24 1.54.58 2.076 1.02.544.44.944.968 1.2 1.584.256.608.384 1.28.384 2.016a5.13 5.13 0 01-.264 1.656c-.168.52-.416.992-.744 1.416-.32.424-.72.796-1.2 1.116a5.923 5.923 0 01-1.62.756c.208.12.4.264.576.432.176.16.336.352.48.576L108.293 30zm5.101-10.08h.756c.304 0 .556-.04.756-.12.2-.088.372-.224.516-.408l4.788-6.06c.2-.256.408-.432.624-.528.224-.104.504-.156.84-.156h2.784l-5.844 7.212c-.344.44-.7.752-1.068.936.264.096.5.232.708.408.216.168.42.392.612.672L124.89 30h-2.844c-.384 0-.672-.052-.864-.156a1.417 1.417 0 01-.468-.48l-4.908-6.408a1.286 1.286 0 00-.528-.456c-.2-.088-.488-.132-.864-.132h-1.02V30h-3.228V12.648h3.228v7.272zM129.86 30h-3.24V12.648h3.24V30zm20.433-8.676c0 1.272-.212 2.452-.636 3.54a8.234 8.234 0 01-1.776 2.808 8.168 8.168 0 01-2.772 1.86c-1.08.44-2.28.66-3.6.66-1.312 0-2.508-.22-3.588-.66a8.298 8.298 0 01-2.784-1.86 8.386 8.386 0 01-1.788-2.808c-.424-1.088-.636-2.268-.636-3.54 0-1.272.212-2.448.636-3.528a8.36 8.36 0 011.788-2.82 8.152 8.152 0 012.784-1.848c1.08-.448 2.276-.672 3.588-.672.88 0 1.708.104 2.484.312.776.2 1.488.488 2.136.864.648.368 1.228.82 1.74 1.356.52.528.96 1.12 1.32 1.776.36.656.632 1.368.816 2.136a9.96 9.96 0 01.288 2.424zm-3.3 0c0-.952-.128-1.804-.384-2.556-.256-.76-.62-1.404-1.092-1.932a4.665 4.665 0 00-1.728-1.212c-.672-.28-1.432-.42-2.28-.42-.848 0-1.612.14-2.292.42a4.799 4.799 0 00-1.728 1.212c-.472.528-.836 1.172-1.092 1.932-.256.752-.384 1.604-.384 2.556s.128 1.808.384 2.568c.256.752.62 1.392 1.092 1.92.48.52 1.056.92 1.728 1.2.68.28 1.444.42 2.292.42.848 0 1.608-.14 2.28-.42a4.73 4.73 0 001.728-1.2c.472-.528.836-1.168 1.092-1.92.256-.76.384-1.616.384-2.568z" fill="#8D81AC"/><path d="M9 6.5H6.267a1 1 0 00-1 1v8.707a1 1 0 01-.177.567l-2.676 3.888a1 1 0 00.033 1.18l2.61 3.37a1 1 0 01.21.612V34.5a1 1 0 001 1H9m25-29h2.733a1 1 0 011 1v8.707a1 1 0 00.177.567l2.676 3.888a1 1 0 01-.033 1.18l-2.61 3.37a1 1 0 00-.21.612V34.5a1 1 0 01-1 1H34m-15.672-27l-2.23 24.91a1 1 0 00.996 1.09h7.963a1 1 0 00.998-.941L27.5 9m-9.172-.5l.58-6.482a1 1 0 011.107-.905l7.03.78a1 1 0 01.886 1.066L27.5 9m-9.172-.5L27.5 9" stroke="#8D81AC" stroke-width="3"/><path d="M18.887 39.361l-2.093-3.887a1 1 0 01.88-1.474h6.28c.908 0 1.346 1.114.68 1.733l-4.186 3.887a1 1 0 01-1.561-.259z" fill="#8D81AC" stroke="#8D81AC" stroke-width="3"/></g><defs><clipPath id="clip0_4_240"><path fill="#fff" transform="translate(0 .5)" d="M0 0h164v41H0z"/></clipPath></defs></svg>