<svg width="164" height="42" viewBox="0 0 164 42" fill="none" xmlns="http://www.w3.org/2000/svg">
<g clip-path="url(#clip0_4_240)">
<path d="M65.172 15.216V20.352H71.676V22.932H65.172V30H61.932V12.648H72.876V15.216H65.172ZM91.9097 21.324C91.9097 22.596 91.6977 23.776 91.2737 24.864C90.8577 25.944 90.2657 26.88 89.4977 27.672C88.7297 28.464 87.8057 29.084 86.7257 29.532C85.6457 29.972 84.4457 30.192 83.1257 30.192C81.8137 30.192 80.6177 29.972 79.5377 29.532C78.4577 29.084 77.5297 28.464 76.7537 27.672C75.9857 26.88 75.3897 25.944 74.9657 24.864C74.5417 23.776 74.3297 22.596 74.3297 21.324C74.3297 20.052 74.5417 18.876 74.9657 17.796C75.3897 16.708 75.9857 15.768 76.7537 14.976C77.5297 14.184 78.4577 13.568 79.5377 13.128C80.6177 12.68 81.8137 12.456 83.1257 12.456C84.0057 12.456 84.8337 12.56 85.6097 12.768C86.3857 12.968 87.0977 13.256 87.7457 13.632C88.3937 14 88.9737 14.452 89.4857 14.988C90.0057 15.516 90.4457 16.108 90.8057 16.764C91.1657 17.42 91.4377 18.132 91.6217 18.9C91.8137 19.668 91.9097 20.476 91.9097 21.324ZM88.6097 21.324C88.6097 20.372 88.4817 19.52 88.2257 18.768C87.9697 18.008 87.6057 17.364 87.1337 16.836C86.6617 16.308 86.0857 15.904 85.4057 15.624C84.7337 15.344 83.9737 15.204 83.1257 15.204C82.2777 15.204 81.5137 15.344 80.8337 15.624C80.1617 15.904 79.5857 16.308 79.1057 16.836C78.6337 17.364 78.2697 18.008 78.0137 18.768C77.7577 19.52 77.6297 20.372 77.6297 21.324C77.6297 22.276 77.7577 23.132 78.0137 23.892C78.2697 24.644 78.6337 25.284 79.1057 25.812C79.5857 26.332 80.1617 26.732 80.8337 27.012C81.5137 27.292 82.2777 27.432 83.1257 27.432C83.9737 27.432 84.7337 27.292 85.4057 27.012C86.0857 26.732 86.6617 26.332 87.1337 25.812C87.6057 25.284 87.9697 24.644 88.2257 23.892C88.4817 23.132 88.6097 22.276 88.6097 21.324ZM99.9885 20.904C100.597 20.904 101.125 20.828 101.573 20.676C102.029 20.524 102.401 20.316 102.689 20.052C102.985 19.78 103.205 19.46 103.349 19.092C103.493 18.724 103.565 18.32 103.565 17.88C103.565 17 103.273 16.324 102.689 15.852C102.113 15.38 101.229 15.144 100.037 15.144H97.9725V20.904H99.9885ZM108.293 30H105.377C104.825 30 104.425 29.784 104.177 29.352L100.529 23.796C100.393 23.588 100.241 23.44 100.073 23.352C99.9125 23.264 99.6725 23.22 99.3525 23.22H97.9725V30H94.7445V12.648H100.037C101.213 12.648 102.221 12.772 103.061 13.02C103.909 13.26 104.601 13.6 105.137 14.04C105.681 14.48 106.081 15.008 106.337 15.624C106.593 16.232 106.721 16.904 106.721 17.64C106.721 18.224 106.633 18.776 106.457 19.296C106.289 19.816 106.041 20.288 105.713 20.712C105.393 21.136 104.993 21.508 104.513 21.828C104.041 22.148 103.501 22.4 102.893 22.584C103.101 22.704 103.293 22.848 103.469 23.016C103.645 23.176 103.805 23.368 103.949 23.592L108.293 30ZM113.394 19.92H114.15C114.454 19.92 114.706 19.88 114.906 19.8C115.106 19.712 115.278 19.576 115.422 19.392L120.21 13.332C120.41 13.076 120.618 12.9 120.834 12.804C121.058 12.7 121.338 12.648 121.674 12.648H124.458L118.614 19.86C118.27 20.3 117.914 20.612 117.546 20.796C117.81 20.892 118.046 21.028 118.254 21.204C118.47 21.372 118.674 21.596 118.866 21.876L124.89 30H122.046C121.662 30 121.374 29.948 121.182 29.844C120.998 29.732 120.842 29.572 120.714 29.364L115.806 22.956C115.654 22.74 115.478 22.588 115.278 22.5C115.078 22.412 114.79 22.368 114.414 22.368H113.394V30H110.166V12.648H113.394V19.92ZM129.86 30H126.62V12.648H129.86V30ZM150.293 21.324C150.293 22.596 150.081 23.776 149.657 24.864C149.241 25.944 148.649 26.88 147.881 27.672C147.113 28.464 146.189 29.084 145.109 29.532C144.029 29.972 142.829 30.192 141.509 30.192C140.197 30.192 139.001 29.972 137.921 29.532C136.841 29.084 135.913 28.464 135.137 27.672C134.369 26.88 133.773 25.944 133.349 24.864C132.925 23.776 132.713 22.596 132.713 21.324C132.713 20.052 132.925 18.876 133.349 17.796C133.773 16.708 134.369 15.768 135.137 14.976C135.913 14.184 136.841 13.568 137.921 13.128C139.001 12.68 140.197 12.456 141.509 12.456C142.389 12.456 143.217 12.56 143.993 12.768C144.769 12.968 145.481 13.256 146.129 13.632C146.777 14 147.357 14.452 147.869 14.988C148.389 15.516 148.829 16.108 149.189 16.764C149.549 17.42 149.821 18.132 150.005 18.9C150.197 19.668 150.293 20.476 150.293 21.324ZM146.993 21.324C146.993 20.372 146.865 19.52 146.609 18.768C146.353 18.008 145.989 17.364 145.517 16.836C145.045 16.308 144.469 15.904 143.789 15.624C143.117 15.344 142.357 15.204 141.509 15.204C140.661 15.204 139.897 15.344 139.217 15.624C138.545 15.904 137.969 16.308 137.489 16.836C137.017 17.364 136.653 18.008 136.397 18.768C136.141 19.52 136.013 20.372 136.013 21.324C136.013 22.276 136.141 23.132 136.397 23.892C136.653 24.644 137.017 25.284 137.489 25.812C137.969 26.332 138.545 26.732 139.217 27.012C139.897 27.292 140.661 27.432 141.509 27.432C142.357 27.432 143.117 27.292 143.789 27.012C144.469 26.732 145.045 26.332 145.517 25.812C145.989 25.284 146.353 24.644 146.609 23.892C146.865 23.132 146.993 22.276 146.993 21.324Z" fill="#8D81AC"/>
<path d="M9 6.5H6.26667C5.71438 6.5 5.26667 6.94772 5.26667 7.5V16.2073C5.26667 16.4098 5.20519 16.6075 5.09037 16.7743L2.41422 20.6619C2.16749 21.0203 2.18086 21.4972 2.44729 21.8412L5.0573 25.2115C5.19302 25.3867 5.26667 25.6021 5.26667 25.8238V34.5C5.26667 35.0523 5.71438 35.5 6.26667 35.5H9" stroke="#8D81AC" stroke-width="3"/>
<path d="M34 6.5H36.7333C37.2856 6.5 37.7333 6.94772 37.7333 7.5V16.2073C37.7333 16.4098 37.7948 16.6075 37.9096 16.7743L40.5858 20.6619C40.8325 21.0203 40.8191 21.4972 40.5527 21.8412L37.9427 25.2115C37.807 25.3867 37.7333 25.6021 37.7333 25.8238V34.5C37.7333 35.0523 37.2856 35.5 36.7333 35.5H34" stroke="#8D81AC" stroke-width="3"/>
<path d="M18.3284 8.5L16.0975 33.4108C16.0451 33.996 16.5061 34.5 17.0936 34.5H25.0571C25.5866 34.5 26.0243 34.0873 26.0554 33.5587L27.5 9M18.3284 8.5L18.9089 2.0175C18.9589 1.4591 19.4581 1.0509 20.0153 1.11281L27.0445 1.89383C27.5782 1.95313 27.9698 2.42335 27.9315 2.95896L27.5 9M18.3284 8.5L27.5 9" stroke="#8D81AC" stroke-width="3"/>
<path d="M18.8868 39.3613L16.7937 35.4741C16.435 34.8079 16.9175 34 17.6742 34H23.9535C24.8623 34 25.2999 35.1144 24.6339 35.7328L20.4478 39.6199C19.9682 40.0653 19.1971 39.9375 18.8868 39.3613Z" fill="#8D81AC" stroke="#8D81AC" stroke-width="3"/>
</g>
<defs>
<clipPath id="clip0_4_240">
<rect width="164" height="41" fill="white" transform="translate(0 0.5)"/>
</clipPath>
</defs>
</svg>
